:SAMPLES-PER-SECOND 30
:FRAME-RANGE 1-1390
:FULLY-SPECIFIED
:DEGREES
218
root  -0.107832 39.5042 -25.8133 179.256 -52.9728 169.328
RightUpLeg  -4.75215 -13.9437 -6.42967
RightLeg  33.4689 -12.1247 -8.75022
RightFoot  -10.2727 -0.137696 7.26322
RightToes  -2.9104e-010 0 -3.6325e-017
Spine  20.6321 -0.206167 0.465715
Spine1  0.716419 -4.7941 6.33362
HEad  2.17113 -19.0557 -2.28033
LeftShoulder1  3.26316 -5.55909 -29.9875
LeftArm  82.052 -36.3217 -84.5432
LeftForeArm  -9.78279 -16.4268 -13.136
LeftHand  -0.0737577 2.25877 2.33614
RightShoulder  13.9168 23.6014 44.6915
RightArm  34.2099 13.8848 23.8133
RightForeArm  26.8723 26.5001 4.25492
RightHand  0.661324 4.78772 7.22668
LeftUpLeg  -101.309 24.5373 -72.0284
LeftLeg  119.565 -3.95859 5.88614
LeftFoot  6.48749 1.16233 -7.6551
LeftToes  5.45371e-012 -1.3743e-010 1.09575e-010
219
root  -0.484451 40.5496 -25.2993 -178.522 -55.7777 168.049
RightUpLeg  -4.22419 -11.0596 -7.42581
RightLeg  29.831 -15.5969 -9.69357
RightFoot  -2.36688 -0.637632 7.90637
RightToes  -2.9104e-010 0 -3.6325e-017
Spine  20.5187 -0.196045 0.758901
Spine1  -0.240722 -4.60573 5.61442
HEad  3.88152 -17.5376 -3.51108
LeftShoulder1  3.22024 -5.54375 -29.567
LeftArm  83.6071 -36.2944 -84.5814
LeftForeArm  -13.4772 -16.8161 -12.9798
LeftHand  -0.0319934 2.57213 0.763464
RightShoulder  14.0148 24.4416 43.5718
RightArm  34.3044 13.7647 24.1533
RightForeArm  27.1422 26.7244 4.28939
RightHand  0.858298 5.36392 8.91584
LeftUpLeg  -102.212 23.235 -73.3071
LeftLeg  118.287 -4.72511 7.49071
LeftFoot  6.6891 1.33734 -8.67483
LeftToes  5.45371e-012 -1.3743e-010 1.09575e-010
220
root  -0.74456 41.1527 -24.8157 -176.58 -59.1197 167.305
RightUpLeg  -5.28309 -6.5758 -6.98181
RightLeg  28.6646 -12.9489 -7.79027
RightFoot  2.11313 -0.54304 4.72285
RightToes  -2.9104e-010 0 -3.6325e-017
Spine  20.7548 -0.151244 -0.134121
Spine1  -0.681011 -4.7897 6.14633
HEad  4.27156 -15.8682 -3.52377
LeftShoulder1  3.21871 -5.64004 -29.1682
LeftArm  82.4917 -36.9764 -85.5776
LeftForeArm  -11.6551 -16.3533 -13.3169
LeftHand  -0.0316665 2.62665 0.752198
RightShoulder  13.813 24.4605 42.8707
RightArm  34.7675 14.414 24.1011
RightForeArm  27.0399 26.827 4.31723
RightHand  0.857885 5.41791 8.86365
LeftUpLeg  -101.855 21.8799 -74.0209
LeftLeg  116.994 -4.65167 7.76944
LeftFoot  6.11289 1.34581 -8.99699
LeftToes  5.45371e-012 -1.3743e-010 1.09575e-010
221
root  -0.929673 41.2903 -24.439 -176.615 -62.9461 168.142
RightUpLeg  -6.10211 -4.14712 -4.60953
RightLeg  28.848 -4.90271 -3.15932
RightFoot  -0.417144 -0.595391 6.19003
RightToes  -2.9104e-010 0 -3.6325e-017
Spine  21.4001 -0.263277 -0.656816
Spine1  -0.401108 -5.04166 6.64436
HEad  3.33159 -14.992 -2.59561
LeftShoulder1  3.26681 -5.75244 -29.2628
LeftArm  80.6364 -37.9311 -86.5383
LeftForeArm  -9.13918 -15.7571 -13.7204
LeftHand  -0.0341029 2.74944 0.74628
RightShoulder  13.704 24.5749 42.3184
RightArm  34.7283 14.654 23.9648
RightForeArm  26.8976 26.5201 4.25792
RightHand  0.812093 5.47015 8.33223
LeftUpLeg  -100.68 21.8077 -73.9081
LeftLeg  116.298 -4.1917 7.16071
LeftFoot  5.98727 1.4622 -9.81756
LeftToes  5.45371e-012 -1.3743e-010 1.09575e-010
222
root  -1.14174 41.0237 -24.1974 -177.969 -67.5084 170.579
RightUpLeg  -6.19629 -2.45118 -0.807871
RightLeg  27.1944 -3.27818 -2.06266
RightFoot  -5.37354 -0.676881 12.2373
RightToes  -2.9104e-010 0 -3.6325e-017
Spine  21.2777 -0.708019 -1.18089
Spine1  0.56006 -5.66301 7.33148
HEad  2.51892 -14.6284 -0.986978
LeftShoulder1  3.30284 -5.70623 -29.8414
LeftArm  78.8237 -38.5683 -87.0246
LeftForeArm  -6.30997 -15.2159 -14.0368
LeftHand  -0.0360029 2.96277 0.985895
RightShoulder  13.8073 24.7512 42.3706
RightArm  35.417 14.7879 23.5301
RightForeArm  26.2194 25.9022 4.16026
RightHand  0.811151 5.40818 8.37375
LeftUpLeg  -98.9739 22.0642 -73.4251
LeftLeg  116.257 -4.35084 7.46345
LeftFoot  6.41578 1.47393 -9.6693
LeftToes  5.45371e-012 -1.3743e-010 1.09575e-010
223
root  -1.40442 40.3754 -24.0535 -179.824 -72.5008 173.656
RightUpLeg  -6.22664 -0.48572 3.21777
RightLeg  24.5078 -3.30376 -1.87124
RightFoot  -6.7138 -0.655625 15.0096
RightToes  -2.9104e-010 0 -3.6325e-017
Spine  20.9287 -1.18583 -1.96203
Spine1  1.08788 -6.31525 7.85104
HEad  1.68921 -15.0988 1.56541
LeftShoulder1  3.38352 -5.86659 -30.0934
LeftArm  77.672 -38.5775 -87.3183
LeftForeArm  -3.80669 -14.939 -14.135
LeftHand  -0.0352747 3.11062 0.972076
RightShoulder  13.608 24.2673 42.5087
RightArm  36.2025 14.3233 23.3686
RightForeArm  25.5738 25.7887 4.17002
RightHand  0.819686 5.39575 8.47532
LeftUpLeg  -97.0587 22.3287 -73.2394
LeftLeg  116.822 -4.97236 8.3933
LeftFoot  6.8697 1.32293 -8.50498
LeftToes  5.45371e-012 -1.3743e-010 1.09575e-010
224
root  -1.75527 39.3611 -24.0074 176.931 -77.9089 177.613
RightUpLeg  -6.59715 0.645167 7.47776
RightLeg  25.1501 -4.04167 -2.29571
RightFoot  -9.02083 -0.0992666 1.87902
RightToes  -2.9104e-010 0 -3.6325e-017
Spine  20.6677 -1.68382 -2.89327
Spine1  1.54369 -6.98702 8.09257
HEad  0.386455 -17.0123 4.61242
LeftShoulder1  3.47212 -6.10617 -30.1165
LeftArm  75.9307 -38.3917 -87.4746
LeftForeArm  -1.69489 -14.5814 -14.3181
LeftHand  -0.0291703 3.19127 0.649571
RightShoulder  13.206 23.4583 42.5106
RightArm  36.3336 13.1018 23.5137
RightForeArm  25.2464 26.2955 4.29705
RightHand  0.817038 5.33544 8.49822
LeftUpLeg  -94.7423 22.8586 -72.8297
LeftLeg  117.935 -5.54931 8.99445
LeftFoot  8.22427 1.42957 -8.5715
LeftToes  5.45371e-012 -1.3743e-010 1.09575e-010
225
root  -2.23314 38.0593 -23.9579 170.367 -83.6258 -175.946
RightUpLeg  -7.70117 3.7922 9.92708
RightLeg  31.3651 -11.8791 -7.95135
RightFoot  -19.0027 -0.25333 -1.86398
RightToes  -2.9104e-010 0 -3.6325e-017
Spine  20.6456 -2.26832 -3.31397
Spine1  2.3259 -7.58963 7.7124
HEad  -1.544 -19.8899 7.43841
LeftShoulder1  3.51097 -6.24266 -30.008
LeftArm  74.2676 -38.0034 -87.9103
LeftForeArm  0.749359 -14.1796 -14.5127
LeftHand  -0.0281923 3.28891 0.59437
RightShoulder  12.9536 22.6893 42.9711
RightArm  35.9616 11.6973 23.0606
RightForeArm  24.596 26.9604 4.47741
RightHand  0.851081 5.14565 9.0352
LeftUpLeg  -91.5117 23.6426 -71.6901
LeftLeg  119.069 -5.33286 8.24448
LeftFoot  10.1896 1.60923 -8.77976
LeftToes  5.45371e-012 -1.3743e-010 1.09575e-010
226
root  -2.67675 36.5978 -23.6868 121.682 -87.1432 -127.908
RightUpLeg  -12.2506 1.46227 11.7608
RightLeg  43.6795 -12.9655 -13.2102
RightFoot  -24.3392 -0.264662 -0.876083
RightToes  -2.9104e-010 0 -3.6325e-017
Spine  21.5736 -2.5743 -1.64759
Spine1  3.1067 -7.41727 6.95131
HEad  -6.7999 -22.509 10.6741
LeftShoulder1  3.58149 -6.1125 -31.243
LeftArm  75.01 -37.9815 -88.1588
LeftForeArm  2.06354 -14.3744 -14.2919
LeftHand  -0.0373303 3.52387 1.18908
RightShoulder  13.0356 22.4564 43.6799
RightArm  34.5923 11.2758 21.635
RightForeArm  24.5475 27.5424 4.609
RightHand  0.829094 4.71765 9.19499
LeftUpLeg  -89.3025 23.9325 -69.5464
LeftLeg  119.577 -5.5811 8.47366
LeftFoot  10.6935 1.54492 -8.26182
LeftToes  5.45371e-012 -1.3743e-010 1.09575e-010
227
root  -3.32812 35.686 -23.4149 45.0832 -85.5102 -51.9322
RightUpLeg  -13.3401 -4.10945 11.8745
RightLeg  49.2786 -11.1805 -13.9134
RightFoot  -28.888 -0.136882 0.384087
RightToes  -2.9104e-010 0 -3.6325e-017
Spine  20.4431 -2.79369 -2.39132
Spine1  6.25803 -8.26348 8.81309
HEad  -10.8338 -23.7137 13.0687
LeftShoulder1  3.62149 -6.10408 -31.6948
LeftArm  77.141 -37.6161 -87.7058
LeftForeArm  1.19067 -14.9958 -13.8243
LeftHand  -0.0548358 3.54548 2.35744
RightShoulder  13.6901 23.2991 44.4543
RightArm  35.3896 12.0597 20.7142
RightForeArm  22.9649 26.5052 4.46507
RightHand  0.81396 4.66865 9.06973
LeftUpLeg  -87.0926 24.8182 -66.8351
LeftLeg  119.96 -5.14155 7.65822
LeftFoot  8.6084 0.986513 -5.90533
LeftToes  5.45371e-012 -1.3743e-010 1.09575e-010
228
root  -4.07966 35.1414 -23.1104 28.9972 -82.4958 -36.0927
RightUpLeg  -13.205 -6.21576 12.1967
RightLeg  52.477 -11.4466 -15.8748
RightFoot  -31.7339 0.124604 1.89349
RightToes  -2.9104e-010 0 -3.6325e-017
Spine  20.8275 -2.90031 -2.34562
Spine1  5.17538 -8.28894 9.06219
HEad  -11.8893 -25.2303 15.3454
LeftShoulder1  3.56893 -6.04339 -31.3817
LeftArm  77.229 -37.2823 -87.1278
LeftForeArm  1.93128 -15.0913 -13.7053
LeftHand  -0.052618 3.91545 2.64376
RightShoulder  13.9238 22.736 46.277
RightArm  35.9882 12.0257 20.6114
RightForeArm  23.7231 26.23 4.3642
RightHand  0.797332 4.67497 8.87334
LeftUpLeg  -87.6388 24.8059 -65.8909
LeftLeg  121.023 -5.35617 7.6701
LeftFoot  7.18737 0.468409 -3.14013
LeftToes  5.45371e-012 -1.3743e-010 1.09575e-010
229
root  -4.97595 35.2834 -22.6795 20.7268 -80.3986 -27.6142
RightUpLeg  -11.1342 -8.74773 10.9424
RightLeg  51.2377 -11.6038 -15.3971
RightFoot  -32.5707 0.286104 2.71017
RightToes  -2.9104e-010 0 -3.6325e-017
Spine  19.9701 -2.52935 -3.13594
Spine1  4.64825 -8.28373 10.2533
HEad  -12.7835 -26.5877 15.3911
LeftShoulder1  3.56317 -5.92011 -31.8114
LeftArm  74.5897 -37.3744 -86.2176
LeftForeArm  1.66856 -14.5193 -14.1952
LeftHand  -0.0535718 3.67503 2.23249
RightShoulder  13.7496 22.2222 46.6335
RightArm  34.8602 11.979 20.7712
RightForeArm  24.4867 26.6816 4.42199
RightHand  0.792852 4.70065 8.79794
LeftUpLeg  -89.5072 24.4783 -66.498
LeftLeg  121.524 -5.55921 7.82328
LeftFoot  8.55356 0.488269 -3.08173
LeftToes  5.45371e-012 -1.3743e-010 1.09575e-010
